<svg width="512" height="512" viewBox="0 0 512 512" xmlns="http://www.w3.org/2000/svg" role="img" aria-label="MathSolver logo">
  <defs>
    <linearGradient id="gBlue" x1="0" y1="0" x2="1" y2="1">
      <stop offset="0" stop-color="#1ec8ff"/>
      <stop offset="1" stop-color="#1b4dff"/>
    </linearGradient>
    <linearGradient id="gGreen" x1="0" y1="0" x2="1" y2="1">
      <stop offset="0" stop-color="#c6ff1f"/>
      <stop offset="1" stop-color="#1cc94f"/>
    </linearGradient>
    <linearGradient id="gOrange" x1="0" y1="0" x2="1" y2="1">
      <stop offset="0" stop-color="#ff9d00"/>
      <stop offset="1" stop-color="#ff4e2a"/>
    </linearGradient>
    <linearGradient id="gRed" x1="0" y1="0" x2="1" y2="1">
      <stop offset="0" stop-color="#ff3d2e"/>
      <stop offset="1" stop-color="#ff8f00"/>
    </linearGradient>
    <filter id="softShadow" x="-20%" y="-20%" width="140%" height="140%">
      <feDropShadow dx="0" dy="8" stdDeviation="8" flood-color="#0f172a" flood-opacity="0.28"/>
    </filter>
  </defs>

  <rect x="56" y="56" width="400" height="400" rx="88" fill="#0a0f1f" opacity="0.02"/>

  <g filter="url(#softShadow)">
    <rect x="108" y="98" width="296" height="296" rx="64" fill="#111827"/>

    <rect x="112" y="102" width="144" height="144" rx="20" fill="url(#gBlue)"/>
    <rect x="260" y="102" width="144" height="144" rx="20" fill="url(#gGreen)"/>
    <rect x="112" y="250" width="144" height="144" rx="20" fill="url(#gOrange)"/>
    <rect x="260" y="250" width="144" height="144" rx="20" fill="url(#gRed)"/>

    <rect x="246" y="102" width="20" height="292" fill="#0b132b" opacity="0.72"/>
    <rect x="112" y="236" width="292" height="20" fill="#0b132b" opacity="0.72"/>
  </g>

  <g fill="#ffffff">
    <rect x="176" y="146" width="16" height="56" rx="8"/>
    <rect x="156" y="166" width="56" height="16" rx="8"/>

    <rect x="300" y="166" width="56" height="16" rx="8"/>

    <rect x="158" y="292" width="60" height="16" rx="8" transform="rotate(45 188 300)"/>
    <rect x="158" y="292" width="60" height="16" rx="8" transform="rotate(-45 188 300)"/>

    <circle cx="328" cy="290" r="10"/>
    <circle cx="328" cy="346" r="10"/>
    <rect x="312" y="312" width="32" height="12" rx="6"/>
    <rect x="294" y="312" width="68" height="12" rx="6"/>
  </g>
</svg>
